<svg xmlns="http://www.w3.org/2000/svg" version="1.0" viewBox="100 200 285 285" stroke-width="1" stroke="#fff" fill="#fff">
    <g class="letter-b-out">
        <path d="M177.7 208.3c-3.1.9-17.3 11.5-24.3 18.1-.6.6-6.1 5.3-12.2 10.5-7.6 6.4-11.8 10.7-13.2 13.6-2 4.1-2 5.9-2 109.1 0 65.2.4 106.2 1 108.3 1.1 4 4.2 7.6 8.5 9.9 2.7 1.5 9.8 1.6 72.9 1.5 78.6-.2 79.2-.3 94.3-7.4 4.7-2.2 11.4-6.6 15.6-10.2 4.1-3.4 14-11.7 22-18.5 17.3-14.5 22-19.6 25.8-27.7 4.7-9.9 5.8-19.8 5.5-46.5-.3-24.9-1.1-29.8-6-40.5-3.2-7.1-10.4-14.6-17.6-18.4-3.4-1.8-6-3.6-5.8-3.9 7.5-14.2 9.4-24.4 8.5-44.2-.9-18.2-4.3-28.1-12.9-37.5-8.2-9-19.7-13.8-38.3-16.1-14.6-1.7-115.5-1.8-121.8-.1zm120.5 2.8c17.4 1.8 30.4 7.3 38.2 15.9 7.8 8.7 10.6 17.8 11.3 37.1.8 22.1-1.7 33.2-9.5 41.1-3 3.2-3.3 3.8-1.6 3.8 4.2 0 16 6.7 20.1 11.4 9.4 10.7 11.3 18.1 12 46.1 1 40.8-2.2 50.6-22.2 67.3-5.5 4.7-15.6 13.2-22.5 18.9-15.2 12.9-20.6 16.4-29 19.1-12.6 4.1-16.7 4.3-89.2 4l-69.6-.3-2.6-2.4c-1.4-1.4-3-4.1-3.6-6-1.1-4-1.4-205.9-.3-212.4.7-4.5 1.9-5.7 26.8-26.8 9.8-8.4 19.5-15.9 21.5-16.5 4.6-1.7 105-1.9 120.2-.3z" />
        <path d="m176 216.9-3 2.9v105.6c0 67.4.4 106.4 1 108.1 2.2 5.7 1.7 5.6 77.4 5.2 76-.4 76.4-.4 89.2-6.7 12.9-6.3 19.9-15.7 22.9-30.8 2.2-10.8 1.7-53.6-.8-61.8-3.6-12.4-9.5-19.5-20.3-24.6-7.3-3.4-17.7-5.1-15.6-2.6.7.9 2.9 1.9 4.9 2.3 7.2 1.3 13.9 4.5 18.4 8.9 9.6 9.2 12 19.5 11.9 50.8-.1 14.8-.6 23.6-1.6 27.7-4.2 18.3-15 27.8-36.7 32.1-3.9.8-27.4 1.2-74.2 1.3l-68.4.2-2.3-2.3-2.3-2.2V326.1c0-101.8.1-105 1.9-107 1.9-2.1 2.2-2.1 59.5-2.1 63.9 0 69.7.4 81.6 6.1 11 5.3 17.7 14.1 20.4 26.7 1.7 8.2 1.4 32.8-.5 39.2-2.1 7-3.7 9.5-9.8 15.2-5.4 5-4.5 6.6 1.5 2.5 9.5-6.4 12.9-16.4 12.9-38.2 0-31.5-8.5-44.6-33.4-51.8-6.8-2-10.2-2.1-69.4-2.4l-62.3-.4-2.9 3z" />
    </g>
    <g class="letter-b-in" stroke="none" fill="none">
        <path d="M210.8 238.8c-2 .2-4.2 1-5 1.9-1.1 1.3-1.3 17.3-1.3 85.5v84l2.4 2c2.4 1.9 3.9 1.9 51.5 1.6 42.8-.4 49.9-.6 55-2.1 10.2-3 16.4-7.8 20-15.6 1.9-4.3 2.1-6.3 2.1-28.1 0-22.4-.1-23.7-2.3-28.5-4-8.6-11-14.3-21.8-17.5l-4.2-1.3 2.8-4.4c4.4-6.9 5.4-12.8 5.3-32.8 0-15.8-.3-18.7-2.1-24-3.8-10.3-12.1-16.7-25.2-19.4-5-1-67.8-2.1-77.2-1.3zm69.5 3.2c16.9 1.7 26.3 7.6 30.3 19.1 1.6 4.5 1.9 8.5 1.9 23.9 0 19.9-.7 23.7-5.3 29.9-1.4 1.9-4.9 4.5-8.1 6l-5.6 2.6 9 .6c10.9.7 18.7 4 23.9 10 5.4 6.3 6.1 10.6 6.1 35.4 0 20.6-.1 22.2-2.2 26-4.4 8.3-11.8 12.7-23.9 14.5-3.8.5-27.7 1-53.1 1H207v-84.3c0-46.4.3-84.7.7-85 1-1.1 61.5-.8 72.6.3z" />
        <path d="M211 284.1v39l38.3-.3c33.5-.3 38.8-.6 42.7-2.1 7.1-2.8 11.8-6.4 14.2-11 2.2-4 2.3-5.3 2.3-23.8v-19.6l-3.5-6.9c-3.1-6.1-4.1-7.2-9-9.6-7.7-4-16.9-4.8-53.7-4.8H211v39.1zm80.5-33.1c4.9 2 6.6 3.4 9.2 7.3 4.9 7.2 5.5 11 5.1 29.6-.4 19.3-1.4 22.6-8.2 26.6-8.4 4.9-13.4 5.5-48.2 5.5-17.7 0-32.9-.3-33.8-.6-1.4-.5-1.6-4.6-1.6-35.4 0-26.9.3-35 1.3-35.4.6-.3 16.7-.4 35.7-.3 34.1.3 34.6.3 40.5 2.7z" />
        <path d="M244.3 264c-3.7 1.5-4.3 4.2-4.3 20 0 14.9 0 15.1 2.6 17.7 2.5 2.5 2.5 2.5 17.9 2.2 13.6-.4 15.7-.6 18.2-2.5 5.1-3.8 6.4-7.7 6.1-18.9-.3-8.6-.6-10.5-2.7-13.3-1.3-1.8-3.5-3.8-5-4.4-3.3-1.3-29.9-2-32.8-.8zm32.4 3.8c3.9 2.2 5.3 6.3 5.3 15.9 0 15.6-2.4 17.3-24.2 17.3H243v-35.2l15.8.4c10 .2 16.5.8 17.9 1.6z" />
        <path d="M211 366.8v40.3l49.3-.3c55-.4 55.3-.4 62.2-7.5 4.8-4.9 6.5-10.9 7.2-24.8 1.2-26.3-4-40.5-16.7-45-6.1-2.3-13.9-2.6-61.3-2.8l-40.7-.2v40.3zm92.6-36.4c5.7.6 11.3 2.7 14.5 5.4 3 2.5 6.6 10 7.7 16.2 1.3 7.1.9 31.3-.7 36.7-2.2 8-9.1 13.2-19.3 14.7-2.5.4-23.8.7-47.4.7-33.9 0-42.9-.3-43.6-1.3-.4-.7-.8-17.4-.8-37l.1-35.7 12.7-.3c19-.4 71 0 76.8.6z" />
        <path d="M244.1 346.2c-3.6 1.3-4.1 4.2-4.1 21.6 0 23.1-2.2 21.4 27.3 21 21.1-.3 22.7-.4 25.4-2.4 5.4-4.1 6.4-7.2 6.4-19.5-.1-12.7-1.3-15.9-7.1-19.4-3.2-1.8-5.2-2-24.7-2-11.7 0-22.2.3-23.2.7zm46.9 4.1c4 1.9 5 5.3 5 16.7 0 18.5-.9 19-31.2 19H243v-37.5l22.7.3c14.9.2 23.7.7 25.3 1.5z" />
    </g>
</svg>